<svg xmlns="http://www.w3.org/2000/svg" xmlns:xlink="http://www.w3.org/1999/xlink" viewBox="0 0 512 512" width="512" height="512" preserveAspectRatio="xMidYMid meet" style="width: 100%; height: 100%; transform: translate3d(0px, 0px, 0px); content-visibility: visible;"><defs><clipPath id="__lottie_element_2"><rect width="512" height="512" x="0" y="0"/></clipPath><clipPath id="__lottie_element_4"><path d="M0,0 L512,0 L512,512 L0,512z"/></clipPath><clipPath id="__lottie_element_8"><path d="M0,0 L512,0 L512,512 L0,512z"/></clipPath><clipPath id="__lottie_element_12"><path d="M0,0 L512,0 L512,512 L0,512z"/></clipPath><linearGradient id="__lottie_element_86" spreadMethod="pad" gradientUnits="userSpaceOnUse" x1="-12.357999801635742" y1="-89.7030029296875" x2="42.72999954223633" y2="53.20000076293945"><stop offset="0%" stop-color="rgb(4,180,255)" stop-opacity="1"/><stop offset="50%" stop-color="rgb(4,180,255)" stop-opacity="0.5"/><stop offset="100%" stop-color="rgb(4,180,255)" stop-opacity="0"/></linearGradient><clipPath id="__lottie_element_109"><path d="M0,0 L512,0 L512,512 L0,512z"/></clipPath><linearGradient id="__lottie_element_174" spreadMethod="pad" gradientUnits="userSpaceOnUse" x1="-12.357999801635742" y1="-89.7030029296875" x2="42.72999954223633" y2="53.20000076293945"><stop offset="0%" stop-color="rgb(4,180,255)" stop-opacity="1"/><stop offset="50%" stop-color="rgb(4,180,255)" stop-opacity="0.5"/><stop offset="100%" stop-color="rgb(4,180,255)" stop-opacity="0"/></linearGradient><clipPath id="__lottie_element_185"><path d="M0,0 L512,0 L512,512 L0,512z"/></clipPath><clipPath id="__lottie_element_216"><path d="M0,0 L512,0 L512,512 L0,512z"/></clipPath></defs><g clip-path="url(#__lottie_element_2)"><g clip-path="url(#__lottie_element_4)" transform="matrix(1,0,0,1,0,0)" opacity="1" style="display: none;"><g clip-path="url(#__lottie_element_8)" transform="matrix(1,0,0,1,12,9)" opacity="1" style="display: none;"><g transform="matrix(1.5022599697113037,0,0,1.5022599697113037,-7.507354736328125,337.35150146484375)" opacity="1" style="display: none;"><g opacity="1" transform="matrix(1,0,0,1,176.4949951171875,64.81999969482422)"><path stroke-linecap="round" stroke-linejoin="round" fill-opacity="0" stroke="rgb(3,180,255)" stroke-opacity="1" stroke-width="0" d=" M151.4949951171875,0 C151.4949951171875,21.992000579833984 83.66899871826172,39.81999969482422 0.0010000000474974513,39.81999969482422 C-83.66699981689453,39.81999969482422 -151.49400329589844,21.992000579833984 -151.49400329589844,0 C-151.49400329589844,-21.992000579833984 -83.66699981689453,-39.81999969482422 0.0010000000474974513,-39.81999969482422 C83.66899871826172,-39.81999969482422 151.4949951171875,-21.992000579833984 151.4949951171875,0z"/></g></g></g><g clip-path="url(#__lottie_element_12)" transform="matrix(1,0,0,1,12,9)" opacity="1" style="display: block;"><g transform="matrix(1.5022599697113037,0,0,1.5022599697113037,-7.507354736328125,337.35150146484375)" opacity="1" style="display: block;"><g opacity="1" transform="matrix(1,0,0,1,176.4949951171875,64.81999969482422)"><path stroke-linecap="round" stroke-linejoin="round" fill-opacity="0" stroke="rgb(3,180,255)" stroke-opacity="1" stroke-width="0" d=" M151.4949951171875,0 C151.4949951171875,21.992000579833984 83.66899871826172,39.81999969482422 0.0010000000474974513,39.81999969482422 C-83.66699981689453,39.81999969482422 -151.49400329589844,21.992000579833984 -151.49400329589844,0 C-151.49400329589844,-21.992000579833984 -83.66699981689453,-39.81999969482422 0.0010000000474974513,-39.81999969482422 C83.66899871826172,-39.81999969482422 151.4949951171875,-21.992000579833984 151.4949951171875,0z"/></g></g></g><g transform="matrix(0.9994161128997803,0.03416689485311508,-0.03416689485311508,0.9994161128997803,61.98320007324219,207.96136474609375)" opacity="1" style="display: block;"><g opacity="1" transform="matrix(1,0,0,1,211.84800720214844,148.99600219726562)"><path fill="rgb(255,212,39)" fill-opacity="1" d=" M-148.48399353027344,73.28600311279297 C-162.2740020751953,57.900001525878906 -168.33999633789062,43.196998596191406 -169.42999267578125,22.95599937438965 C-174.16799926757812,-65.0469970703125 -96.2030029296875,-111.80000305175781 0.8320000171661377,-111.80000305175781 C105.0459976196289,-111.80000305175781 176.1719970703125,-91.49700164794922 169.9239959716797,20.909000396728516 C168.1009979248047,53.70899963378906 158.4199981689453,71.88200378417969 110.90699768066406,88.61399841308594 C60.71200180053711,106.29100036621094 -103.03700256347656,123.99600219726562 -148.48399353027344,73.28600311279297z"/><path stroke-linecap="butt" stroke-linejoin="miter" fill-opacity="0" stroke-miterlimit="10" stroke="rgb(249,143,22)" stroke-opacity="1" stroke-width="10" d=" M-148.48399353027344,73.28600311279297 C-162.2740020751953,57.900001525878906 -168.33999633789062,43.196998596191406 -169.42999267578125,22.95599937438965 C-174.16799926757812,-65.0469970703125 -96.2030029296875,-111.80000305175781 0.8320000171661377,-111.80000305175781 C105.0459976196289,-111.80000305175781 176.1719970703125,-91.49700164794922 169.9239959716797,20.909000396728516 C168.1009979248047,53.70899963378906 158.4199981689453,71.88200378417969 110.90699768066406,88.61399841308594 C60.71200180053711,106.29100036621094 -103.03700256347656,123.99600219726562 -148.48399353027344,73.28600311279297z"/></g></g><g transform="matrix(0.9994161128997803,0.03416689485311508,-0.03416689485311508,0.9994161128997803,87.93304443359375,279.61883544921875)" opacity="1" style="display: block;"><g opacity="1" transform="matrix(1,0,0,1,342.5580139160156,59.694000244140625)"><path stroke-linecap="round" stroke-linejoin="round" fill-opacity="0" stroke="rgb(251,237,32)" stroke-opacity="1" stroke-width="10" d=" M-17.04599952697754,-28.517000198364258 C2.5950000286102295,12.345000267028809 -2.7939999103546143,35.33100128173828 -8.932000160217285,51.560001373291016"/></g><g opacity="1" transform="matrix(1,0,0,1,33.013999938964844,46.38600158691406)"><path stroke-linecap="round" stroke-linejoin="round" fill-opacity="0" stroke="rgb(255,255,255)" stroke-opacity="1" stroke-width="10" d=" M12.67199993133545,-9.852999687194824 C-1.2079999446868896,9.88700008392334 -4.254000186920166,21.784000396728516 -2.5510001182556152,37.93899917602539"/></g></g><g style="display: none;"><g><path/></g></g><g transform="matrix(0.05915031209588051,1.3286839723587036,-1.3286839723587036,0.05915031209588051,138.31944274902344,432.1977233886719)" opacity="1" style="display: block;"><g opacity="1" transform="matrix(1,0,0,1,0,0)"><path fill="rgb(1,0,0)" fill-opacity="1" d=" M0,-26 C-2.5369999408721924,-26 -12.894000053405762,10.836999893188477 -12.894000053405762,13.104999542236328 C-12.894000053405762,20.215999603271484 -7.110000133514404,26 0,26 C7.110000133514404,26 12.894000053405762,20.215999603271484 12.894000053405762,13.104999542236328 C12.894000053405762,10.836999893188477 2.5369999408721924,-26 0,-26z"/></g></g><g transform="matrix(0.05915031209588051,1.3286839723587036,-1.3286839723587036,0.05915031209588051,171.8686981201172,430.70416259765625)" opacity="1" style="display: block;"><g opacity="1" transform="matrix(1,0,0,1,0,0)"><path fill="rgb(1,0,0)" fill-opacity="1" d=" M0,-9 C-6.617000102996826,-9 -12,-6.617000102996826 -12,0 C-12,6.617000102996826 -6.617000102996826,9 0,9 C6.617000102996826,9 12,6.617000102996826 12,0 C12,-6.617000102996826 6.617000102996826,-9 0,-9z"/></g></g><g style="display: none;"><g><path/><path stroke-linecap="round" stroke-linejoin="round" fill-opacity="0"/></g></g><g transform="matrix(0.9994160532951355,0.034167081117630005,-0.034167081117630005,0.9994160532951355,82.82470703125,300.1505432128906)" opacity="1" style="display: block;"><g opacity="1" transform="matrix(1,0,0,1,57.97800064086914,81.80899810791016)"><path fill="rgb(255,212,39)" fill-opacity="1" d=" M32.97800064086914,13.595999717712402 C19.447999954223633,41.91999816894531 -6.072000026702881,56.808998107910156 -18.413000106811523,47.61800003051758 C-30.486000061035156,38.62799835205078 -32.97700119018555,-19.027000427246094 17.448999404907227,-56.808998107910156"/><path stroke-linecap="round" stroke-linejoin="round" fill-opacity="0" stroke="rgb(249,143,22)" stroke-opacity="1" stroke-width="10" d=" M32.97800064086914,13.595999717712402 C19.447999954223633,41.91999816894531 -6.072000026702881,56.808998107910156 -18.413000106811523,47.61800003051758 C-30.486000061035156,38.62799835205078 -32.97700119018555,-19.027000427246094 17.448999404907227,-56.808998107910156"/></g></g><g transform="matrix(0.9994160532951355,0.034167081117630005,-0.034167081117630005,0.9994160532951355,101.0001220703125,322.10736083984375)" opacity="1" style="display: block;"><g opacity="1" transform="matrix(1,0,0,1,39.57600021362305,60.46099853515625)"><path stroke-linecap="round" stroke-linejoin="round" fill-opacity="0" stroke="rgb(255,255,255)" stroke-opacity="1" stroke-width="10" d=" M-12.0649995803833,34.35900115966797 C-18.76099967956543,8.26099967956543 -3.7950000762939453,-20.46299934387207 22.100000381469727,-45.125"/></g></g><g transform="matrix(0.9994161128997803,0.03416671231389046,-0.03416671231389046,0.9994161128997803,341.49420166015625,302.4820556640625)" opacity="1" style="display: block;"><g opacity="1" transform="matrix(1,0,0,1,57.97700119018555,82.88200378417969)"><path fill="rgb(255,212,39)" fill-opacity="1" d=" M-32.97700119018555,12.52299976348877 C-19.44700050354004,40.84700012207031 8.034000396728516,57.88199996948242 19.756000518798828,48.439998626708984 C29.301000595092773,40.75199890136719 32.084999084472656,-0.4950000047683716 4.88700008392334,-35.92399978637695"/><path stroke-linecap="round" stroke-linejoin="round" fill-opacity="0" stroke="rgb(249,143,22)" stroke-opacity="1" stroke-width="10" d=" M-32.97700119018555,12.52299976348877 C-19.44700050354004,40.84700012207031 8.034000396728516,57.88199996948242 19.756000518798828,48.439998626708984 C29.301000595092773,40.75199890136719 32.084999084472656,-0.4950000047683716 4.88700008392334,-35.92399978637695"/></g></g><g transform="matrix(0.9994161128997803,0.03416671231389046,-0.03416671231389046,0.9994161128997803,368.84429931640625,332.74114990234375)" opacity="1" style="display: block;"><g opacity="1" transform="matrix(1,0,0,1,37.183998107910156,57.85100173950195)"><path stroke-linecap="round" stroke-linejoin="round" fill-opacity="0" stroke="rgb(251,237,32)" stroke-opacity="1" stroke-width="10" d=" M2.1760001182556152,32.85100173950195 C5.571000099182129,25.21299934387207 11.862000465393066,9.29800033569336 -10.430999755859375,-29.82699966430664"/></g></g><g transform="matrix(0.9994161128997803,0.034166984260082245,-0.034166984260082245,0.9994161128997803,76.92842102050781,9.598175048828125)" opacity="1" style="display: block;"><g opacity="1" transform="matrix(1,0,0,1,198.8719940185547,158.7830047607422)"><path fill="rgb(255,212,39)" fill-opacity="1" d=" M-127.66699981689453,133.7830047607422 C-162.63900756835938,114.08599853515625 -173.8719940185547,72.41500091552734 -173.8719940185547,36.566001892089844 C-173.8719940185547,-49.277000427246094 -96.02799987792969,-133.7830047607422 -0.0010000000474974513,-133.7830047607422 C96.0260009765625,-133.7830047607422 173.8719940185547,-49.277000427246094 173.8719940185547,36.566001892089844 C173.8719940185547,72.78299713134766 160.01600646972656,103.4520034790039 136.78500366210938,126.80799865722656"/><path stroke-linecap="round" stroke-linejoin="miter" fill-opacity="0" stroke-miterlimit="10" stroke="rgb(249,143,22)" stroke-opacity="1" stroke-width="10" d=" M-127.66699981689453,133.7830047607422 C-162.63900756835938,114.08599853515625 -173.8719940185547,72.41500091552734 -173.8719940185547,36.566001892089844 C-173.8719940185547,-49.277000427246094 -96.02799987792969,-133.7830047607422 -0.0010000000474974513,-133.7830047607422 C96.0260009765625,-133.7830047607422 173.8719940185547,-49.277000427246094 173.8719940185547,36.566001892089844 C173.8719940185547,72.78299713134766 160.01600646972656,103.4520034790039 136.78500366210938,126.80799865722656"/></g></g><g transform="matrix(0.9994161128997803,0.034166984260082245,-0.034166984260082245,0.9994161128997803,104.83173370361328,39.89019775390625)" opacity="1" style="display: block;"><g opacity="1" transform="matrix(1,0,0,1,102.4729995727539,69.81999969482422)"><path stroke-linecap="round" stroke-linejoin="round" fill-opacity="0" stroke="rgb(255,255,255)" stroke-opacity="1" stroke-width="10" d=" M-63.875999450683594,37.04899978637695 C-51.617000579833984,12.619999885559082 -31.753000259399414,-8.928999900817871 -7.127999782562256,-23.780000686645508 C14.666999816894531,-36.92300033569336 40.191001892089844,-44.81999969482422 67.47599792480469,-44.81999969482422"/></g></g><g transform="matrix(0.9994161128997803,0.034166984260082245,-0.034166984260082245,0.9994161128997803,346.6203918457031,86.84982299804688)" opacity="1" style="display: block;"><g opacity="1" transform="matrix(1,0,0,1,48.32400131225586,110.46199798583984)"><path stroke-linecap="round" stroke-linejoin="round" fill-opacity="0" stroke="rgb(251,237,32)" stroke-opacity="1" stroke-width="10" d=" M-16.375,-78.75700378417969 C8.232000350952148,-53.4640007019043 23.322999954223633,-20.41699981689453 23.322999954223633,12.880000114440918 C23.322999954223633,42.0099983215332 11.772000312805176,66.677001953125 -7.593999862670898,85.46199798583984"/></g></g><g transform="matrix(1.0588501691818237,0.059124793857336044,-0.051904935389757156,0.9295516610145569,136.61312866210938,181.6582794189453)" opacity="1" style="display: block;"><path stroke-linecap="butt" stroke-linejoin="miter" fill-opacity="0" stroke-miterlimit="4" stroke="rgb(0,0,0)" stroke-opacity="1" stroke-width="8.336111303464122e-7" d=" M55.84,41.01 C51.15,57.2 35.95,67.03 21.9,62.96 C7.84,58.89 0.25,42.46 4.94,26.27 C9.63,10.08 24.82,0.25 38.88,4.32 C52.93,8.39 60.53,24.82 55.84,41.01z"/><g opacity="1" transform="matrix(1,0,0,1,30.38800048828125,33.638999938964844)"><path fill="rgb(0,0,0)" fill-opacity="1" d=" M25.448999404907227,7.369999885559082 C20.760000228881836,23.562000274658203 5.564000129699707,33.388999938964844 -8.491000175476074,29.31800079345703 C-22.54599952697754,25.24799919128418 -30.13800048828125,8.821999549865723 -25.448999404907227,-7.369999885559082 C-20.759000778198242,-23.562000274658203 -5.564000129699707,-33.388999938964844 8.491000175476074,-29.319000244140625 C22.54599952697754,-25.24799919128418 30.13800048828125,-8.821999549865723 25.448999404907227,7.369999885559082z"/></g></g><g transform="matrix(0.2898072898387909,0.01618245616555214,-0.01420638058334589,0.254418283700943,158.7146759033203,205.6740264892578)" opacity="1" style="display: block;"><g opacity="1" transform="matrix(0.7515299916267395,0,0,0.7515299916267395,15.770000457763672,-20.802000045776367)"><path fill="rgb(255,255,255)" fill-opacity="1" d=" M25.448999404907227,7.369999885559082 C20.760000228881836,23.562000274658203 5.564000129699707,33.388999938964844 -8.491000175476074,29.31800079345703 C-22.54599952697754,25.24799919128418 -30.13800048828125,8.821999549865723 -25.448999404907227,-7.369999885559082 C-20.759000778198242,-23.562000274658203 -5.564000129699707,-33.388999938964844 8.491000175476074,-29.319000244140625 C22.54599952697754,-25.24799919128418 30.13800048828125,-8.821999549865723 25.448999404907227,7.369999885559082z"/></g></g><g transform="matrix(1.0588501691818237,0.059124793857336044,-0.051904935389757156,0.9295516610145569,340.62237548828125,193.32591247558594)" opacity="1" style="display: block;"><path stroke-linecap="butt" stroke-linejoin="miter" fill-opacity="0" stroke-miterlimit="4" stroke="rgb(0,0,0)" stroke-opacity="1" stroke-width="3.7045266942925537e-7" d=" M53.38,30.01 C54.05,46.7 42.83,60.7 28.34,61.27 C13.85,61.85 1.57,48.78 0.91,32.09 C0.25,15.4 11.46,1.4 25.95,0.82 C40.44,0.25 52.72,13.32 53.38,30.01z"/><g opacity="1" transform="matrix(1,0,0,1,27.14699935913086,31.049999237060547)"><path fill="rgb(0,0,0)" fill-opacity="1" d=" M26.23699951171875,-1.0399999618530273 C26.898000717163086,15.652999877929688 15.687999725341797,29.650999069213867 1.1979999542236328,30.225000381469727 C-13.291999816894531,30.798999786376953 -25.575000762939453,17.73200035095215 -26.236000061035156,1.0390000343322754 C-26.898000717163086,-15.654000282287598 -15.687999725341797,-29.650999069213867 -1.1979999542236328,-30.225000381469727 C13.291999816894531,-30.798999786376953 25.576000213623047,-17.732999801635742 26.23699951171875,-1.0399999618530273z"/></g></g><g transform="matrix(0.1963849514722824,0.010965876281261444,-0.009626807644963264,0.17240393161773682,362.7229919433594,218.1427001953125)" opacity="1" style="display: block;"><g opacity="1" transform="matrix(1,0,0,1,-23.78700065612793,-45.98099899291992)"><path fill="rgb(255,255,255)" fill-opacity="1" d=" M26.23699951171875,-1.0399999618530273 C26.898000717163086,15.652999877929688 15.687999725341797,29.650999069213867 1.1979999542236328,30.225000381469727 C-13.291999816894531,30.798999786376953 -25.575000762939453,17.73200035095215 -26.236000061035156,1.0390000343322754 C-26.898000717163086,-15.654000282287598 -15.687999725341797,-29.650999069213867 -1.1979999542236328,-30.225000381469727 C13.291999816894531,-30.798999786376953 25.576000213623047,-17.732999801635742 26.23699951171875,-1.0399999618530273z"/></g></g><g transform="matrix(1.0588505268096924,0.05912481248378754,-0.05190495029091835,0.9295519590377808,167.20770263671875,185.77981567382812)" opacity="1" style="display: block;"><g opacity="1" transform="matrix(1,0,0,1,97.20700073242188,71.1989974975586)"><path fill="rgb(255,92,30)" fill-opacity="1" d=" M41.696998596191406,36.9739990234375 C29.65399932861328,38.28499984741211 19.33300018310547,36.733001708984375 5.3429999351501465,38.40299987792969 C-9.744999885559082,40.20500183105469 -23.506999969482422,41.44499969482422 -33.36899948120117,43.70399856567383 C-53.76100158691406,48.374000549316406 -50.29399871826172,21.06999969482422 -36.617000579833984,12.008999824523926 C-13.786999702453613,-3.115999937057495 -27.0049991607666,-48.96500015258789 -3.941999912261963,-51.520999908447266 C23.211000442504883,-54.53200149536133 17.384000778198242,-6.745999813079834 30.6200008392334,1.100000023841858 C55.130001068115234,15.628999710083008 54.691001892089844,35.558998107910156 41.696998596191406,36.9739990234375z"/><path stroke-linecap="butt" stroke-linejoin="miter" fill-opacity="0" stroke-miterlimit="10" stroke="rgb(207,53,2)" stroke-opacity="1" stroke-width="6.667" d=" M41.696998596191406,36.9739990234375 C29.65399932861328,38.28499984741211 19.33300018310547,36.733001708984375 5.3429999351501465,38.40299987792969 C-9.744999885559082,40.20500183105469 -23.506999969482422,41.44499969482422 -33.36899948120117,43.70399856567383 C-53.76100158691406,48.374000549316406 -50.29399871826172,21.06999969482422 -36.617000579833984,12.008999824523926 C-13.786999702453613,-3.115999937057495 -27.0049991607666,-48.96500015258789 -3.941999912261963,-51.520999908447266 C23.211000442504883,-54.53200149536133 17.384000778198242,-6.745999813079834 30.6200008392334,1.100000023841858 C55.130001068115234,15.628999710083008 54.691001892089844,35.558998107910156 41.696998596191406,36.9739990234375z"/></g></g><g transform="matrix(1.04714035987854,0.17297619581222534,-0.1816706359386444,0.9176068902015686,189.04067993164062,183.98095703125)" opacity="1" style="display: block;"><g opacity="1" transform="matrix(1,0,0,1,33.59000015258789,24.059999465942383)"><path stroke-linecap="round" stroke-linejoin="round" fill-opacity="0" stroke="rgb(255,180,132)" stroke-opacity="1" stroke-width="8" d=" M33.41400146484375,54.88800048828125 C40.198001861572266,45.7869987487793 45.72200012207031,29.733999252319336 42.3489990234375,1.4190000295639038"/></g></g><g transform="matrix(1.0588505268096924,0.05912481248378754,-0.05190495029091835,0.9295519590377808,201.84580993652344,233.8432159423828)" opacity="1" style="display: block;"><g opacity="1" transform="matrix(1,0,0,1,64.81900024414062,32.64699935913086)"><path stroke-linecap="round" stroke-linejoin="round" fill-opacity="0" stroke="rgb(125,9,9)" stroke-opacity="1" stroke-width="8" d=" M-31.94499969482422,19.31999969482422 C-8.442000389099121,16.590999603271484 12.746999740600586,15.402000427246094 34.715999603271484,14.5600004196167"/></g></g><g transform="matrix(0.39300692081451416,1.3122180700302124,-1.2370599508285522,0.3704972267150879,110.18302917480469,419.12554931640625)" opacity="1" style="display: none;"><g opacity="1" transform="matrix(1,0,0,1,0,0)"><path fill="rgb(1,0,0)" fill-opacity="1" d=" M0,-26 C-2.5369999408721924,-26 -12.894000053405762,10.836999893188477 -12.894000053405762,13.104999542236328 C-12.894000053405762,20.215999603271484 -7.110000133514404,26 0,26 C7.110000133514404,26 12.894000053405762,20.215999603271484 12.894000053405762,13.104999542236328 C12.894000053405762,10.836999893188477 2.5369999408721924,-26 0,-26z"/></g></g><g transform="matrix(0.39300692081451416,1.3122180700302124,-1.2370599508285522,0.3704972267150879,141.41879272460938,409.7704772949219)" opacity="1" style="display: none;"><g opacity="1" transform="matrix(1,0,0,1,0,0)"><path fill="rgb(1,0,0)" fill-opacity="1" d=" M0,-9 C-6.617000102996826,-9 -12,-6.617000102996826 -12,0 C-12,6.617000102996826 -6.617000102996826,9 0,9 C6.617000102996826,9 12,6.617000102996826 12,0 C12,-6.617000102996826 6.617000102996826,-9 0,-9z"/></g></g><g transform="matrix(-0.964974045753479,0.18736617267131805,-0.1259271204471588,-0.6125311851501465,99.48208618164062,419.6150207519531)" opacity="1" style="display: none;"><g opacity="1" transform="matrix(1,0,0,1,0,0)"><path fill="rgb(62,62,62)" fill-opacity="1" d=" M-0.32600000500679016,-7.283999919891357 C-4.658999919891357,-6.159999847412109 -17.701000213623047,-2.311000108718872 -17.76099967956543,0.6110000014305115 C-17.833999633789062,4.1570000648498535 -3.8540000915527344,7.828999996185303 0.4129999876022339,9.182000160217285 C7.710999965667725,11.494999885559082 8.670000076293945,-9.616999626159668 -0.32600000500679016,-7.283999919891357z"/></g></g><g transform="matrix(1.317120909690857,-0.18464048206806183,0.18464048206806183,1.317120909690857,237.63856506347656,427.7762451171875)" opacity="1" style="display: block;"><g opacity="1" transform="matrix(1,0,0,1,0,0)"><path fill="url(#__lottie_element_86)" fill-opacity="1" d=" M-4.86899995803833,38.2400016784668 C-25.98900032043457,35.55099868774414 -40.92900085449219,16.250999450683594 -38.2400016784668,-4.86899995803833 C-35.55099868774414,-25.98900032043457 -16.250999450683594,-40.92900085449219 4.86899995803833,-38.2400016784668 C25.98900032043457,-35.55099868774414 40.92900085449219,-16.250999450683594 38.2400016784668,4.86899995803833 C35.55099868774414,25.98900032043457 16.250999450683594,40.92900085449219 -4.86899995803833,38.2400016784668z"/><path stroke-linecap="round" stroke-linejoin="round" fill-opacity="0" stroke="rgb(1,0,0)" stroke-opacity="1" stroke-width="12" d=" M-4.86899995803833,38.2400016784668 C-25.98900032043457,35.55099868774414 -40.92900085449219,16.250999450683594 -38.2400016784668,-4.86899995803833 C-35.55099868774414,-25.98900032043457 -16.250999450683594,-40.92900085449219 4.86899995803833,-38.2400016784668 C25.98900032043457,-35.55099868774414 40.92900085449219,-16.250999450683594 38.2400016784668,4.86899995803833 C35.55099868774414,25.98900032043457 16.250999450683594,40.92900085449219 -4.86899995803833,38.2400016784668z"/></g></g><g transform="matrix(1.317120909690857,-0.18464048206806183,0.18464048206806183,1.317120909690857,237.63856506347656,427.7762451171875)" opacity="1" style="display: block;"><g opacity="1" transform="matrix(1,0,0,1,0,0)"><path stroke-linecap="round" stroke-linejoin="round" fill-opacity="0" stroke="rgb(62,62,62)" stroke-opacity="1" stroke-width="5" d=" M16.381000518798828,-35.95399856567383 C11.390999794006348,-38.23099899291992 5.843999862670898,-39.5 0,-39.5 C-18.785999298095703,-39.5 -34.5099983215332,-26.385000228881836 -38.513999938964844,-8.810999870300293"/></g></g><g transform="matrix(1.317120909690857,-0.18464048206806183,0.18464048206806183,1.317120909690857,237.63856506347656,427.7762451171875)" opacity="1" style="display: block;"><g opacity="1" transform="matrix(1,0,0,1,0,0)"><path stroke-linecap="round" stroke-linejoin="round" fill-opacity="0" stroke="rgb(255,255,255)" stroke-opacity="1" stroke-width="8" d=" M-21.46299934387207,-10.569999694824219 C-18.690000534057617,-16.190000534057617 -13.776000022888184,-20.562999725341797 -7.785999774932861,-22.624000549316406"/></g></g><g transform="matrix(-1.317120909690857,0.18464048206806183,-0.18859362602233887,-1.345320463180542,237.63856506347656,427.7762451171875)" opacity="0.5" style="display: block;"><g opacity="1" transform="matrix(1,0,0,1,0,0)"><path stroke-linecap="round" stroke-linejoin="round" fill-opacity="0" stroke="rgb(255,255,255)" stroke-opacity="1" stroke-width="6" d=" M-22.13800048828125,-9.076000213623047 C-19.27400016784668,-16.054000854492188 -13.206000328063965,-21.378999710083008 -5.764999866485596,-23.219999313354492"/></g></g></g><g clip-path="url(#__lottie_element_109)" transform="matrix(1,0,0,1,0,0)" opacity="1" style="display: block;"><g clip-path="url(#__lottie_element_185)" transform="matrix(1,0,0,1,12,9)" opacity="1" style="display: block;"><g transform="matrix(1.5022599697113037,0,0,1.5022599697113037,-7.507354736328125,337.35150146484375)" opacity="1" style="display: block;"><g opacity="1" transform="matrix(1,0,0,1,176.4949951171875,64.81999969482422)"><path stroke-linecap="round" stroke-linejoin="round" fill-opacity="0" stroke="rgb(3,180,255)" stroke-opacity="1" stroke-width="0" d=" M151.4949951171875,0 C151.4949951171875,21.992000579833984 83.66899871826172,39.81999969482422 0.0010000000474974513,39.81999969482422 C-83.66699981689453,39.81999969482422 -151.49400329589844,21.992000579833984 -151.49400329589844,0 C-151.49400329589844,-21.992000579833984 -83.66699981689453,-39.81999969482422 0.0010000000474974513,-39.81999969482422 C83.66899871826172,-39.81999969482422 151.4949951171875,-21.992000579833984 151.4949951171875,0z"/></g></g></g><g clip-path="url(#__lottie_element_216)" transform="matrix(1,0,0,1,12,9)" opacity="1" style="display: block;"><g transform="matrix(1.0420355796813965,0,0,1.0420355796813965,73.71994018554688,365.511474609375)" opacity="1" style="display: block;"><g opacity="1" transform="matrix(1,0,0,1,176.4949951171875,64.81999969482422)"><path stroke-linecap="round" stroke-linejoin="round" fill-opacity="0" stroke="rgb(3,180,255)" stroke-opacity="1" stroke-width="4.780951408682892" d=" M151.4949951171875,0 C151.4949951171875,21.992000579833984 83.66899871826172,39.81999969482422 0.0010000000474974513,39.81999969482422 C-83.66699981689453,39.81999969482422 -151.49400329589844,21.992000579833984 -151.49400329589844,0 C-151.49400329589844,-21.992000579833984 -83.66699981689453,-39.81999969482422 0.0010000000474974513,-39.81999969482422 C83.66899871826172,-39.81999969482422 151.4949951171875,-21.992000579833984 151.4949951171875,0z"/></g></g></g><g transform="matrix(0.9994162321090698,0.03416689857840538,-0.034166887402534485,0.9994158744812012,61.98316955566406,207.96142578125)" opacity="1" style="display: block;"><g opacity="1" transform="matrix(1,0,0,1,211.84800720214844,148.99600219726562)"><path fill="rgb(255,212,39)" fill-opacity="1" d=" M-148.48399353027344,73.28600311279297 C-162.2740020751953,57.900001525878906 -166.84800720214844,40.064998626708984 -164.63499450683594,19.916000366210938 C-154.0050048828125,-76.89700317382812 -97.05400085449219,-123.99600219726562 -0.01899999938905239,-123.99600219726562 C104.19499969482422,-123.99600219726562 166.84800720214844,-86.6729965209961 166.84800720214844,17.10700035095215 C166.84800720214844,49.95800018310547 158.42100524902344,71.88200378417969 110.90799713134766,88.61399841308594 C60.7130012512207,106.29100036621094 -103.03700256347656,123.99600219726562 -148.48399353027344,73.28600311279297z"/><path stroke-linecap="butt" stroke-linejoin="miter" fill-opacity="0" stroke-miterlimit="10" stroke="rgb(249,143,22)" stroke-opacity="1" stroke-width="10" d=" M-148.48399353027344,73.28600311279297 C-162.2740020751953,57.900001525878906 -166.84800720214844,40.064998626708984 -164.63499450683594,19.916000366210938 C-154.0050048828125,-76.89700317382812 -97.05400085449219,-123.99600219726562 -0.01899999938905239,-123.99600219726562 C104.19499969482422,-123.99600219726562 166.84800720214844,-86.6729965209961 166.84800720214844,17.10700035095215 C166.84800720214844,49.95800018310547 158.42100524902344,71.88200378417969 110.90799713134766,88.61399841308594 C60.7130012512207,106.29100036621094 -103.03700256347656,123.99600219726562 -148.48399353027344,73.28600311279297z"/></g></g><g transform="matrix(0.9994162321090698,0.03416689857840538,-0.034166887402534485,0.9994158744812012,87.93302154541016,279.618896484375)" opacity="1" style="display: block;"><g opacity="1" transform="matrix(1,0,0,1,342.5580139160156,59.694000244140625)"><path stroke-linecap="round" stroke-linejoin="round" fill-opacity="0" stroke="rgb(251,237,32)" stroke-opacity="1" stroke-width="10" d=" M-7.770999908447266,32.27799987792969 C-5.818999767303467,57.779998779296875 -7.276000022888184,81.11499786376953 -59.426998138427734,96.13700103759766"/></g><g opacity="1" transform="matrix(1,0,0,1,33.013999938964844,46.38600158691406)"><path stroke-linecap="round" stroke-linejoin="round" fill-opacity="0" stroke="rgb(255,255,255)" stroke-opacity="1" stroke-width="10" d=" M0.3840000033378601,55.73899841308594 C-1.7269999980926514,67.47000122070312 0.27000001072883606,85.75199890136719 17.488000869750977,99.72200012207031"/></g></g><g transform="matrix(0.18029099702835083,1.2609525918960571,-1.3406463861465454,0.12926983833312988,113.73920440673828,406.7552490234375)" opacity="1" style="display: none;"><g opacity="1" transform="matrix(1,0,0,1,0,0)"><path fill="rgb(1,0,0)" fill-opacity="1" d=" M0,-26 C-2.5369999408721924,-26 -12.894000053405762,10.836999893188477 -12.894000053405762,13.104999542236328 C-12.894000053405762,20.215999603271484 -7.110000133514404,26 0,26 C7.110000133514404,26 12.894000053405762,20.215999603271484 12.894000053405762,13.104999542236328 C12.894000053405762,10.836999893188477 2.5369999408721924,-26 0,-26z"/></g></g><g transform="matrix(0.18029099702835083,1.2609525918960571,-1.3406463861465454,0.12926983833312988,147.59051513671875,403.4912109375)" opacity="1" style="display: none;"><g opacity="1" transform="matrix(1,0,0,1,0,0)"><path fill="rgb(1,0,0)" fill-opacity="1" d=" M0,-9 C-6.617000102996826,-9 -12,-6.617000102996826 -12,0 C-12,6.617000102996826 -6.617000102996826,9 0,9 C6.617000102996826,9 12,6.617000102996826 12,0 C12,-6.617000102996826 6.617000102996826,-9 0,-9z"/></g></g><g transform="matrix(0.34461042284965515,0.8990210890769958,-0.9599428772926331,0.3180750906467438,152.0481414794922,251.94676208496094)" opacity="1" style="display: none;"><g opacity="1" transform="matrix(1,0,0,1,57.97800064086914,81.80899810791016)"><path fill="rgb(255,212,39)" fill-opacity="1" d=" M53.504913330078125,-6.914633750915527 C33.750980377197266,21.872591018676758 -31.450191497802734,53.42731475830078 -45.45687484741211,20.28035545349121 C-55.60445785522461,-2.020319700241089 -4.867560863494873,-29.15134048461914 24.00074005126953,-63.25344467163086"/><path stroke-linecap="round" stroke-linejoin="round" fill-opacity="0" stroke="rgb(249,143,22)" stroke-opacity="1" stroke-width="10" d=" M53.504913330078125,-6.914633750915527 C33.750980377197266,21.872591018676758 -31.450191497802734,53.42731475830078 -45.45687484741211,20.28035545349121 C-55.60445785522461,-2.020319700241089 -4.867560863494873,-29.15134048461914 24.00074005126953,-63.25344467163086"/></g></g><g transform="matrix(-0.23468367755413055,0.9720715284347534,-0.9720718860626221,-0.23468361794948578,206.45872497558594,248.66482543945312)" opacity="1" style="display: block;"><g opacity="1" transform="matrix(1,0,0,1,57.97800064086914,81.80899810791016)"><path fill="rgb(255,212,39)" fill-opacity="1" d=" M69.29100036621094,-20.90999984741211 C12.986000061035156,-0.2280000001192093 31.726999282836914,59.17100143432617 1.4229999780654907,65.64600372314453 C-29.417999267578125,72.23600006103516 -67.26000213623047,5.479000091552734 8.246999740600586,-52.58700180053711"/><path stroke-linecap="round" stroke-linejoin="round" fill-opacity="0" stroke="rgb(249,143,22)" stroke-opacity="1" stroke-width="10" d=" M69.29100036621094,-20.90999984741211 C12.986000061035156,-0.2280000001192093 31.726999282836914,59.17100143432617 1.4229999780654907,65.64600372314453 C-29.417999267578125,72.23600006103516 -67.26000213623047,5.479000091552734 8.246999740600586,-52.58700180053711"/></g></g><g transform="matrix(0.34461042284965515,0.8990210890769958,-0.9599428772926331,0.3180750906467438,138.0975799560547,275.73406982421875)" opacity="1" style="display: none;"><g opacity="1" transform="matrix(1,0,0,1,39.57600021362305,60.46099853515625)"><path stroke-linecap="round" stroke-linejoin="round" fill-opacity="0" stroke="rgb(255,255,255)" stroke-opacity="1" stroke-width="10" d=" M-29.600000381469727,16.764999389648438 C-23.475000381469727,14.666999816894531 -1.843000054359436,4.0269999504089355 20.614999771118164,-14.057000160217285"/></g></g><g transform="matrix(-0.23468367755413055,0.9720715284347534,-0.9720718860626221,-0.23468361794948578,181.2921905517578,262.04742431640625)" opacity="1" style="display: block;"><g opacity="1" transform="matrix(1,0,0,1,39.57600021362305,60.46099853515625)"><path stroke-linecap="round" stroke-linejoin="round" fill-opacity="0" stroke="rgb(255,255,255)" stroke-opacity="1" stroke-width="10" d=" M14.706999778747559,18.785999298095703 C12.984000205993652,9.961999893188477 23.14900016784668,-7.4079999923706055 32.880001068115234,-16.023000717163086"/></g></g><g transform="matrix(-0.08414722979068756,-0.996453046798706,0.9964534044265747,-0.08414717763662338,347.32281494140625,382.1110534667969)" opacity="1" style="display: block;"><g opacity="1" transform="matrix(1,0,0,1,57.97700119018555,82.88200378417969)"><path fill="rgb(255,212,39)" fill-opacity="1" d=" M-50.946998596191406,-4.448999881744385 C0.04899999871850014,12.557999610900879 -15.902999877929688,73.81700134277344 8.329000473022461,73.40799713134766 C40.1879997253418,72.87000274658203 51.487998962402344,13.829000473022461 17.27199935913086,-30.06999969482422"/><path stroke-linecap="round" stroke-linejoin="round" fill-opacity="0" stroke="rgb(249,143,22)" stroke-opacity="1" stroke-width="10" d=" M-50.946998596191406,-4.448999881744385 C0.04899999871850014,12.557999610900879 -15.902999877929688,73.81700134277344 8.329000473022461,73.40799713134766 C40.1879997253418,72.87000274658203 51.487998962402344,13.829000473022461 17.27199935913086,-30.06999969482422"/></g></g><g transform="matrix(-0.08414722979068756,-0.996453046798706,0.9964534044265747,-0.08414717763662338,374.13873291015625,351.3775634765625)" opacity="1" style="display: block;"><g opacity="1" transform="matrix(1,0,0,1,37.183998107910156,57.85100173950195)"><path stroke-linecap="round" stroke-linejoin="round" fill-opacity="0" stroke="rgb(251,237,32)" stroke-opacity="1" stroke-width="10" d=" M10.569999694824219,49.4739990234375 C22.250999450683594,24.801000595092773 18.36199951171875,4.392000198364258 -11.704999923706055,-32.26900100708008"/></g></g><g transform="matrix(0.9884597063064575,0.15148454904556274,-0.15148457884788513,0.9884593486785889,119.21116638183594,9.938507080078125)" opacity="1" style="display: block;"><g opacity="1" transform="matrix(1,0,0,1,198.8719940185547,158.7830047607422)"><path fill="rgb(255,212,39)" fill-opacity="1" d=" M-127.66699981689453,133.7830047607422 C-162.63900756835938,114.08599853515625 -173.8719940185547,72.41500091552734 -173.8719940185547,36.566001892089844 C-173.8719940185547,-49.277000427246094 -96.02799987792969,-133.7830047607422 -0.0010000000474974513,-133.7830047607422 C96.0260009765625,-133.7830047607422 173.8719940185547,-49.277000427246094 173.8719940185547,36.566001892089844 C173.8719940185547,72.78299713134766 160.01600646972656,103.4520034790039 136.78500366210938,126.80799865722656"/><path stroke-linecap="round" stroke-linejoin="miter" fill-opacity="0" stroke-miterlimit="10" stroke="rgb(249,143,22)" stroke-opacity="1" stroke-width="10" d=" M-127.66699981689453,133.7830047607422 C-162.63900756835938,114.08599853515625 -173.8719940185547,72.41500091552734 -173.8719940185547,36.566001892089844 C-173.8719940185547,-49.277000427246094 -96.02799987792969,-133.7830047607422 -0.0010000000474974513,-133.7830047607422 C96.0260009765625,-133.7830047607422 173.8719940185547,-49.277000427246094 173.8719940185547,36.566001892089844 C173.8719940185547,72.78299713134766 160.01600646972656,103.4520034790039 136.78500366210938,126.80799865722656"/></g></g><g transform="matrix(-0.07647967338562012,0.9561312198638916,-1.0146770477294922,-0.07596159726381302,188.03607177734375,258.3729248046875)" opacity="1" style="display: none;"><g opacity="1" transform="matrix(1,0,0,1,57.97800064086914,81.80899810791016)"><path fill="rgb(255,212,39)" fill-opacity="1" d=" M60.53779602050781,-13.911630630493164 C52.37620162963867,23.009693145751953 -21.25492286682129,72.80272674560547 -38.27772903442383,38.52113723754883 C-52.77605438232422,12.459441184997559 16.241857528686523,-9.413209915161133 11.888176918029785,-48.68608093261719"/><path stroke-linecap="round" stroke-linejoin="round" fill-opacity="0" stroke="rgb(249,143,22)" stroke-opacity="1" stroke-width="10" d=" M60.53779602050781,-13.911630630493164 C52.37620162963867,23.009693145751953 -21.25492286682129,72.80272674560547 -38.27772903442383,38.52113723754883 C-52.77605438232422,12.459441184997559 16.241857528686523,-9.413209915161133 11.888176918029785,-48.68608093261719"/></g></g><g transform="matrix(-0.07647967338562012,0.9561312198638916,-1.0146770477294922,-0.07596159726381302,164.9534912109375,274.83843994140625)" opacity="1" style="display: none;"><g opacity="1" transform="matrix(1,0,0,1,39.57600021362305,60.46099853515625)"><path stroke-linecap="round" stroke-linejoin="round" fill-opacity="0" stroke="rgb(255,255,255)" stroke-opacity="1" stroke-width="10" d=" M-19.76300048828125,28.694000244140625 C-9.864999771118164,27.011999130249023 8.015000343322754,16.464000701904297 20.746000289916992,-0.9350000023841858"/></g></g><g transform="matrix(0.9884597063064575,0.15148454904556274,-0.15148457884788513,0.9884593486785889,143.35772705078125,43.3023681640625)" opacity="1" style="display: block;"><g opacity="1" transform="matrix(1,0,0,1,102.4729995727539,69.81999969482422)"><path stroke-linecap="round" stroke-linejoin="round" fill-opacity="0" stroke="rgb(255,255,255)" stroke-opacity="1" stroke-width="10" d=" M-66.94100189208984,43.57699966430664 C-55.08399963378906,16.474000930786133 -33.92499923706055,-7.61899995803833 -7.127999782562256,-23.780000686645508 C12.736000061035156,-35.757999420166016 35.696998596191406,-43.37900161743164 60.26599884033203,-44.63600158691406"/></g></g><g transform="matrix(0.9884597063064575,0.15148454904556274,-0.15148457884788513,0.9884593486785889,377.9444580078125,118.37600708007812)" opacity="1" style="display: block;"><g opacity="1" transform="matrix(1,0,0,1,48.32400131225586,110.46199798583984)"><path stroke-linecap="round" stroke-linejoin="round" fill-opacity="0" stroke="rgb(251,237,32)" stroke-opacity="1" stroke-width="10" d=" M-22.19700050354004,-84.43199920654297 C5.829999923706055,-58.527000427246094 23.322999954223633,-22.968000411987305 23.322999954223633,12.880000114440918 C23.322999954223633,39.06800079345703 13.987000465393066,61.64899826049805 -1.9700000286102295,79.59200286865234"/></g></g><g transform="matrix(0.6334195733070374,0.060477808117866516,-0.05309272184967995,0.5560711026191711,164.53684997558594,195.5455780029297)" opacity="1" style="display: block;"><path stroke-linecap="butt" stroke-linejoin="miter" fill-opacity="0" stroke-miterlimit="4" stroke="rgb(0,0,0)" stroke-opacity="1" stroke-width="3.7045266942925537e-7" d=" M55.84,41.01 C51.15,57.2 35.95,67.03 21.9,62.96 C7.84,58.89 0.25,42.46 4.94,26.27 C9.63,10.08 24.82,0.25 38.88,4.32 C52.93,8.39 60.53,24.82 55.84,41.01z"/><g opacity="1" transform="matrix(1,0,0,1,30.38800048828125,33.638999938964844)"><path fill="rgb(0,0,0)" fill-opacity="1" d=" M25.448999404907227,7.369999885559082 C20.760000228881836,23.562000274658203 5.564000129699707,33.388999938964844 -8.491000175476074,29.31800079345703 C-22.54599952697754,25.24799919128418 -30.13800048828125,8.821999549865723 -25.448999404907227,-7.369999885559082 C-20.759000778198242,-23.562000274658203 -5.564000129699707,-33.388999938964844 8.491000175476074,-29.319000244140625 C22.54599952697754,-25.24799919128418 30.13800048828125,-8.821999549865723 25.448999404907227,7.369999885559082z"/></g></g><g transform="matrix(0.17336693406105042,0.016552776098251343,-0.014531479217112064,0.15219666063785553,177.2197723388672,210.46632385253906)" opacity="1" style="display: block;"><g opacity="1" transform="matrix(0.7515299916267395,0,0,0.7515299916267395,15.770000457763672,-20.802000045776367)"><path fill="rgb(255,255,255)" fill-opacity="1" d=" M25.448999404907227,7.369999885559082 C20.760000228881836,23.562000274658203 5.564000129699707,33.388999938964844 -8.491000175476074,29.31800079345703 C-22.54599952697754,25.24799919128418 -30.13800048828125,8.821999549865723 -25.448999404907227,-7.369999885559082 C-20.759000778198242,-23.562000274658203 -5.564000129699707,-33.388999938964844 8.491000175476074,-29.319000244140625 C22.54599952697754,-25.24799919128418 30.13800048828125,-8.821999549865723 25.448999404907227,7.369999885559082z"/></g></g><g transform="matrix(0.6334195733070374,0.06047782301902771,-0.05309274420142174,0.5560710430145264,366.67987060546875,213.94354248046875)" opacity="1" style="display: block;"><path stroke-linecap="butt" stroke-linejoin="miter" fill-opacity="0" stroke-miterlimit="4" stroke="rgb(0,0,0)" stroke-opacity="1" stroke-width="3.7045266942925537e-7" d=" M53.38,30.01 C54.05,46.7 42.83,60.7 28.34,61.27 C13.85,61.85 1.57,48.78 0.91,32.09 C0.25,15.4 11.46,1.4 25.95,0.82 C40.44,0.25 52.72,13.32 53.38,30.01z"/><g opacity="1" transform="matrix(1,0,0,1,27.14699935913086,31.049999237060547)"><path fill="rgb(0,0,0)" fill-opacity="1" d=" M26.23699951171875,-1.0399999618530273 C26.898000717163086,15.652999877929688 15.687999725341797,29.650999069213867 1.1979999542236328,30.225000381469727 C-13.291999816894531,30.798999786376953 -25.575000762939453,17.73200035095215 -26.236000061035156,1.0390000343322754 C-26.898000717163086,-15.654000282287598 -15.687999725341797,-29.650999069213867 -1.1979999542236328,-30.225000381469727 C13.291999816894531,-30.798999786376953 25.576000213623047,-17.732999801635742 26.23699951171875,-1.0399999618530273z"/></g></g><g transform="matrix(0.1174803227186203,0.01121682021766901,-0.009847110137343407,0.10313449800014496,379.3432922363281,229.34451293945312)" opacity="1" style="display: block;"><g opacity="1" transform="matrix(1,0,0,1,-23.78700065612793,-45.98099899291992)"><path fill="rgb(255,255,255)" fill-opacity="1" d=" M26.23699951171875,-1.0399999618530273 C26.898000717163086,15.652999877929688 15.687999725341797,29.650999069213867 1.1979999542236328,30.225000381469727 C-13.291999816894531,30.798999786376953 -25.575000762939453,17.73200035095215 -26.236000061035156,1.0390000343322754 C-26.898000717163086,-15.654000282287598 -15.687999725341797,-29.650999069213867 -1.1979999542236328,-30.225000381469727 C13.291999816894531,-30.798999786376953 25.576000213623047,-17.732999801635742 26.23699951171875,-1.0399999618530273z"/></g></g><g transform="matrix(1.055699110031128,0.10079635679721832,-0.0884878858923912,0.9267849922180176,183.33209228515625,186.9657745361328)" opacity="1" style="display: block;"><g opacity="1" transform="matrix(1,0,0,1,97.20700073242188,71.1989974975586)"><path fill="rgb(255,92,30)" fill-opacity="1" d=" M101.22000122070312,37.49100112915039 C92.58899688720703,47.672000885009766 43.66400146484375,30.472999572753906 -1.378999948501587,36.14099884033203 C-49.34299850463867,42.17599868774414 -72.09700012207031,52.066001892089844 -81.95899963378906,54.32500076293945 C-102.35099792480469,58.994998931884766 -100.6989974975586,28.02400016784668 -85.20600128173828,22.628999710083008 C-3.691999912261963,-5.755000114440918 -34.41600036621094,-46.18899917602539 -3.941999912261963,-51.520999908447266 C28.722999572753906,-57.236000061035156 2.688999891281128,-4.263000011444092 77.59200286865234,5.64300012588501 C108.03399658203125,9.668999671936035 113.04100036621094,23.547000885009766 101.22000122070312,37.49100112915039z"/><path stroke-linecap="butt" stroke-linejoin="miter" fill-opacity="0" stroke-miterlimit="10" stroke="rgb(207,53,2)" stroke-opacity="1" stroke-width="6.667" d=" M101.22000122070312,37.49100112915039 C92.58899688720703,47.672000885009766 43.66400146484375,30.472999572753906 -1.378999948501587,36.14099884033203 C-49.34299850463867,42.17599868774414 -72.09700012207031,52.066001892089844 -81.95899963378906,54.32500076293945 C-102.35099792480469,58.994998931884766 -100.6989974975586,28.02400016784668 -85.20600128173828,22.628999710083008 C-3.691999912261963,-5.755000114440918 -34.41600036621094,-46.18899917602539 -3.941999912261963,-51.520999908447266 C28.722999572753906,-57.236000061035156 2.688999891281128,-4.263000011444092 77.59200286865234,5.64300012588501 C108.03399658203125,9.668999671936035 113.04100036621094,23.547000885009766 101.22000122070312,37.49100112915039z"/></g></g><g transform="matrix(1.0395125150680542,0.21409794688224792,-0.21768222749233246,0.9097365736961365,205.218994140625,186.02850341796875)" opacity="1" style="display: block;"><g opacity="1" transform="matrix(1,0,0,1,33.59000015258789,24.059999465942383)"><path stroke-linecap="round" stroke-linejoin="round" fill-opacity="0" stroke="rgb(255,180,132)" stroke-opacity="1" stroke-width="8" d=" M-12.032999992370605,70.97100067138672 C4.630000114440918,62.143001556396484 28.80900001525879,48.27899932861328 35.262001037597656,23.926000595092773"/></g></g><g transform="matrix(1.055699110031128,0.10079635679721832,-0.0884878858923912,0.9267849922180176,216.04966735839844,236.35653686523438)" opacity="1" style="display: block;"><g opacity="1" transform="matrix(1,0,0,1,64.81900024414062,32.64699935913086)"><path stroke-linecap="round" stroke-linejoin="round" fill-opacity="0" stroke="rgb(125,9,9)" stroke-opacity="1" stroke-width="8" d=" M-85.74700164794922,29.072999954223633 C-17.44499969482422,5.822000026702881 31.20199966430664,5.9029998779296875 89.28199768066406,13.989999771118164"/></g></g><g transform="matrix(1.3636871576309204,0.12933455407619476,-0.12192699313163757,1.285581111907959,70.47303771972656,278.798095703125)" opacity="1" style="display: block;"><g opacity="1" transform="matrix(1,0,0,1,0,0)"><path fill="rgb(1,0,0)" fill-opacity="1" d=" M0,-26 C-2.5369999408721924,-26 -12.894000053405762,10.836999893188477 -12.894000053405762,13.104999542236328 C-12.894000053405762,20.215999603271484 -7.110000133514404,26 0,26 C7.110000133514404,26 12.894000053405762,20.215999603271484 12.894000053405762,13.104999542236328 C12.894000053405762,10.836999893188477 2.5369999408721924,-26 0,-26z"/></g></g><g transform="matrix(1.3636871576309204,0.12933455407619476,-0.12192699313163757,1.285581111907959,73.55171203613281,246.33717346191406)" opacity="1" style="display: block;"><g opacity="1" transform="matrix(1,0,0,1,0,0)"><path fill="rgb(1,0,0)" fill-opacity="1" d=" M0,-9 C-6.617000102996826,-9 -12,-6.617000102996826 -12,0 C-12,6.617000102996826 -6.617000102996826,9 0,9 C6.617000102996826,9 12,6.617000102996826 12,0 C12,-6.617000102996826 6.617000102996826,-9 0,-9z"/></g></g><g transform="matrix(-0.18928992748260498,0.9645984172821045,-0.6149229407310486,-0.1136741116642952,66.90225219726562,288.8975524902344)" opacity="1" style="display: block;"><g opacity="1" transform="matrix(1,0,0,1,0,0)"><path fill="rgb(62,62,62)" fill-opacity="1" d=" M-0.32600000500679016,-7.283999919891357 C-4.658999919891357,-6.159999847412109 -17.701000213623047,-2.311000108718872 -17.76099967956543,0.6110000014305115 C-17.833999633789062,4.1570000648498535 -3.8540000915527344,7.828999996185303 0.4129999876022339,9.182000160217285 C7.710999965667725,11.494999885559082 8.670000076293945,-9.616999626159668 -0.32600000500679016,-7.283999919891357z"/></g></g><g transform="matrix(1.2788499593734741,-0.3819817304611206,0.39338943362236023,1.2847728729248047,62.496490478515625,151.59417724609375)" opacity="1" style="display: none;"><g opacity="1" transform="matrix(1,0,0,1,0,0)"><path stroke-linecap="round" stroke-linejoin="round" fill-opacity="0" stroke="rgb(62,62,62)" stroke-opacity="1" stroke-width="12" d=" M38.98999786376953,6.32900333404541 C35.4949951171875,27.862001419067383 15.203995704650879,42.4849967956543 -6.32900333404541,38.98999786376953 C-27.862001419067383,35.4949951171875 -42.48500061035156,15.203995704650879 -38.98999786376953,-6.329002857208252 C-35.4949951171875,-27.862001419067383 -15.203994750976562,-42.4849967956543 6.329003810882568,-38.98999786376953 C27.862003326416016,-35.4949951171875 42.48500061035156,-15.203994750976562 38.98999786376953,6.32900333404541z"/></g></g><g transform="matrix(1.3147279024124146,-0.20097333192825317,0.20097310841083527,1.3147279024124146,82.9399642944336,180.16539001464844)" opacity="1" style="display: block;"><g opacity="1" transform="matrix(1,0,0,1,0,0)"><path fill="url(#__lottie_element_174)" fill-opacity="1" d=" M-4.86899995803833,38.2400016784668 C-25.98900032043457,35.55099868774414 -40.92900085449219,16.250999450683594 -38.2400016784668,-4.86899995803833 C-35.55099868774414,-25.98900032043457 -16.250999450683594,-40.92900085449219 4.86899995803833,-38.2400016784668 C25.98900032043457,-35.55099868774414 40.92900085449219,-16.250999450683594 38.2400016784668,4.86899995803833 C35.55099868774414,25.98900032043457 16.250999450683594,40.92900085449219 -4.86899995803833,38.2400016784668z"/><path stroke-linecap="round" stroke-linejoin="round" fill-opacity="0" stroke="rgb(1,0,0)" stroke-opacity="1" stroke-width="12" d=" M-4.86899995803833,38.2400016784668 C-25.98900032043457,35.55099868774414 -40.92900085449219,16.250999450683594 -38.2400016784668,-4.86899995803833 C-35.55099868774414,-25.98900032043457 -16.250999450683594,-40.92900085449219 4.86899995803833,-38.2400016784668 C25.98900032043457,-35.55099868774414 40.92900085449219,-16.250999450683594 38.2400016784668,4.86899995803833 C35.55099868774414,25.98900032043457 16.250999450683594,40.92900085449219 -4.86899995803833,38.2400016784668z"/></g></g><g transform="matrix(1.3147279024124146,-0.20097333192825317,0.20097310841083527,1.3147279024124146,82.9399642944336,180.16539001464844)" opacity="1" style="display: block;"><g opacity="1" transform="matrix(1,0,0,1,0,0)"><path stroke-linecap="round" stroke-linejoin="round" fill-opacity="0" stroke="rgb(62,62,62)" stroke-opacity="1" stroke-width="5" d=" M16.381000518798828,-35.95399856567383 C11.390999794006348,-38.23099899291992 5.843999862670898,-39.5 0,-39.5 C-18.785999298095703,-39.5 -34.5099983215332,-26.385000228881836 -38.513999938964844,-8.810999870300293"/></g></g><g transform="matrix(1.3147279024124146,-0.20097284018993378,0.20097270607948303,1.3147279024124146,82.9399642944336,180.16539001464844)" opacity="1" style="display: block;"><g opacity="1" transform="matrix(1,0,0,1,0,0)"><path stroke-linecap="round" stroke-linejoin="round" fill-opacity="0" stroke="rgb(255,255,255)" stroke-opacity="1" stroke-width="8" d=" M-22.392000198364258,-8.427000045776367 C-20.44300079345703,-13.604000091552734 -16.75,-17.927000045776367 -12.029000282287598,-20.679000854492188"/></g></g><g transform="matrix(-1.3147279024124146,0.20097284018993378,-0.2052755355834961,-1.3428761959075928,82.9399642944336,180.16539001464844)" opacity="0.5" style="display: block;"><g opacity="1" transform="matrix(1,0,0,1,0,0)"><path stroke-linecap="round" stroke-linejoin="round" fill-opacity="0" stroke="rgb(255,255,255)" stroke-opacity="1" stroke-width="6" d=" M-22.496000289916992,-8.14799976348877 C-19.915000915527344,-15.270999908447266 -14.04800033569336,-20.81999969482422 -6.724999904632568,-22.961000442504883"/></g></g></g></g></svg>